{
	"patcher" : 	{
		"fileversion" : 1,
		"appversion" : 		{
			"major" : 8,
			"minor" : 5,
			"revision" : 0,
			"architecture" : "x64",
			"modernui" : 1
		}
,
		"classnamespace" : "box",
		"rect" : [ 828.0, 157.0, 919.0, 695.0 ],
		"bglocked" : 0,
		"openinpresentation" : 0,
		"default_fontsize" : 12.0,
		"default_fontface" : 0,
		"default_fontname" : "Arial",
		"gridonopen" : 1,
		"gridsize" : [ 15.0, 15.0 ],
		"gridsnaponopen" : 1,
		"objectsnaponopen" : 1,
		"statusbarvisible" : 2,
		"toolbarvisible" : 1,
		"lefttoolbarpinned" : 0,
		"toptoolbarpinned" : 0,
		"righttoolbarpinned" : 0,
		"bottomtoolbarpinned" : 0,
		"toolbars_unpinned_last_save" : 0,
		"tallnewobj" : 0,
		"boxanimatetime" : 200,
		"enablehscroll" : 1,
		"enablevscroll" : 1,
		"devicewidth" : 0.0,
		"description" : "",
		"digest" : "",
		"tags" : "",
		"style" : "",
		"subpatcher_template" : "",
		"assistshowspatchername" : 0,
		"boxes" : [ 			{
				"box" : 				{
					"id" : "obj-7",
					"margins" : [ 1.0, 0.0, 1.0, 0.0 ],
					"maxclass" : "plot~",
					"numinlets" : 1,
					"numoutlets" : 1,
					"numpoints" : 441,
					"outlettype" : [ "" ],
					"patching_rect" : [ 330.000009834766388, 363.833346903324127, 354.333329498767853, 128.999997735023499 ],
					"subplots" : [ 						{
							"color" : [ 0.400000005960464, 0.400000005960464, 0.75, 1.0 ],
							"thickness" : 1.200000047683716,
							"point_style" : "none",
							"line_style" : "lines",
							"number_style" : "none",
							"filter" : "none",
							"domain_start" : 0.0,
							"domain_end" : 1.0,
							"domain_style" : "linear",
							"domain_markers" : [ 0.0, 0.125, 0.25, 0.375, 0.5, 0.625, 0.75, 0.875, 1.0 ],
							"domain_labels" : [  ],
							"range_start" : -1.0,
							"range_end" : 1.0,
							"range_style" : "linear",
							"range_markers" : [ -0.5, 0.0, 0.5 ],
							"range_labels" : [  ],
							"origin_x" : 0.0,
							"origin_y" : 0.0
						}
 ]
				}

			}
, 			{
				"box" : 				{
					"id" : "obj-6",
					"margins" : [ 1.0, 0.0, 1.0, 0.0 ],
					"maxclass" : "plot~",
					"numinlets" : 1,
					"numoutlets" : 1,
					"numpoints" : 441,
					"outlettype" : [ "" ],
					"patching_rect" : [ 330.000009834766388, 202.500008761882782, 354.333329498767853, 128.999997735023499 ],
					"subplots" : [ 						{
							"color" : [ 0.400000005960464, 0.400000005960464, 0.75, 1.0 ],
							"thickness" : 1.200000047683716,
							"point_style" : "none",
							"line_style" : "lines",
							"number_style" : "none",
							"filter" : "none",
							"domain_start" : 0.0,
							"domain_end" : 1.0,
							"domain_style" : "linear",
							"domain_markers" : [ 0.0, 0.125, 0.25, 0.375, 0.5, 0.625, 0.75, 0.875, 1.0 ],
							"domain_labels" : [  ],
							"range_start" : -1.0,
							"range_end" : 1.0,
							"range_style" : "linear",
							"range_markers" : [ -0.5, 0.0, 0.5 ],
							"range_labels" : [  ],
							"origin_x" : 0.0,
							"origin_y" : 0.0
						}
 ]
				}

			}
, 			{
				"box" : 				{
					"id" : "obj-5",
					"maxclass" : "newobj",
					"numinlets" : 2,
					"numoutlets" : 1,
					"outlettype" : [ "signal" ],
					"patching_rect" : [ 180.00000536441803, 256.000007629394531, 100.0, 22.0 ],
					"text" : "*~ 0.5"
				}

			}
, 			{
				"box" : 				{
					"id" : "obj-4",
					"maxclass" : "newobj",
					"numinlets" : 2,
					"numoutlets" : 1,
					"outlettype" : [ "signal" ],
					"patching_rect" : [ 179.999999940395355, 207.999997854232788, 100.0, 22.0 ],
					"text" : "+~ 1"
				}

			}
, 			{
				"box" : 				{
					"id" : "obj-3",
					"maxclass" : "number",
					"numinlets" : 1,
					"numoutlets" : 2,
					"outlettype" : [ "", "bang" ],
					"parameter_enable" : 0,
					"patching_rect" : [ 179.999999940395355, 123.333334565162659, 50.0, 22.0 ]
				}

			}
, 			{
				"box" : 				{
					"id" : "obj-1",
					"maxclass" : "newobj",
					"numinlets" : 2,
					"numoutlets" : 1,
					"outlettype" : [ "signal" ],
					"patching_rect" : [ 179.999999940395355, 159.333334565162659, 100.0, 22.0 ],
					"text" : "cycle~"
				}

			}
 ],
		"lines" : [ 			{
				"patchline" : 				{
					"destination" : [ "obj-4", 0 ],
					"order" : 1,
					"source" : [ "obj-1", 0 ]
				}

			}
, 			{
				"patchline" : 				{
					"destination" : [ "obj-6", 0 ],
					"order" : 0,
					"source" : [ "obj-1", 0 ]
				}

			}
, 			{
				"patchline" : 				{
					"destination" : [ "obj-1", 0 ],
					"source" : [ "obj-3", 0 ]
				}

			}
, 			{
				"patchline" : 				{
					"destination" : [ "obj-5", 0 ],
					"source" : [ "obj-4", 0 ]
				}

			}
, 			{
				"patchline" : 				{
					"destination" : [ "obj-7", 0 ],
					"source" : [ "obj-5", 0 ]
				}

			}
 ],
		"dependency_cache" : [  ],
		"autosave" : 0
	}

}
